<?xml version="1.0" encoding="utf-8"?>
<!-- Generator: Adobe Illustrator 15.0.0, SVG Export Plug-In . SVG Version: 6.00 Build 0)  -->
<!DOCTYPE svg PUBLIC "-//W3C//DTD SVG 1.1//EN" "http://www.w3.org/Graphics/SVG/1.1/DTD/svg11.dtd">
<svg version="1.1" id="Layer_3" xmlns="http://www.w3.org/2000/svg" xmlns:xlink="http://www.w3.org/1999/xlink" x="0px" y="0px"
	 width="56.5px" height="56.5px" viewBox="0 0 56.5 56.5" enable-background="new 0 0 56.5 56.5" xml:space="preserve">
<g>
	<g>
		<path fill="#4D4D4F" d="M23.77,48.43c-10.38,0-18.83-8.45-18.83-18.83c0-10.38,8.44-18.83,18.83-18.83
			c9.46,0,17.32,7.02,18.63,16.12c0.13,0.88,8.2,0.49,8.2,1.41c0,2.62,1.32,11.92-0.62,12.76c-3.19,1.38-10.87-0.37-12.27,1.18
			C34.26,46.04,29.29,48.43,23.77,48.43L23.77,48.43z M23.77,12.44c-9.47,0-17.17,7.7-17.17,17.17s7.7,17.17,17.17,17.17
			c4.56,0,8.71-1.78,11.78-4.69c1.36-1.29,13.72,0.48,14.61-1.19c1.27-2.39,0.44-9.64,0.44-12.54c0-0.92-9.73-0.58-9.87-1.46
			C39.42,18.72,32.32,12.44,23.77,12.44L23.77,12.44z"/>
	</g>
	<g>
		<path fill="#4D4D4F" d="M23.77,48.43c-6.2,0-11.24-8.45-11.24-18.83c0-10.38,5.04-18.83,11.24-18.83c5.69,0,10.4,7.11,11.13,16.3
			c0.07,0.83-4.89-0.66-4.93,1.45c-0.42,20.02,4,10.07,2.3,13.38C30.2,45.9,27.16,48.43,23.77,48.43L23.77,48.43z M23.77,12.44
			c-5.28,0-9.58,7.7-9.58,17.17s4.3,17.17,9.58,17.17c2.68,0,5.11-1.99,6.85-5.18c0.72-1.32-1.71,2.38-0.65-10.95
			c0.29-3.72,3.31-3.23,3.26-3.73C32.5,18.72,28.54,12.44,23.77,12.44L23.77,12.44z"/>
	</g>
	<g>
		<path fill="#4D4D4F" d="M23.77,48.43c-0.46,0-0.83-0.37-0.83-0.83v-36c0-0.46,0.37-0.83,0.83-0.83c9.83,0,17.92,7.57,18.76,17.18
			c0.05,0.54,8.03-0.64,8.03-0.08c0,2.73,0.92,12.71-1.1,13.46c-3.14,1.16-10.4-0.57-11.73,0.89C34.28,46.04,29.3,48.43,23.77,48.43
			L23.77,48.43z M24.59,12.46v34.3c4.3-0.2,8.19-2,11.1-4.8c2.22-2.14,10.82,1.84,14.12-0.53c1.98-1.42,1.27-7.07,0.66-13.37
			c-0.1-1-9.61-0.43-9.78-1.39C39.33,18.86,32.69,12.84,24.59,12.46L24.59,12.46z"/>
	</g>
	<g>
		<path fill="#4D4D4F" d="M29.7,36.78H6.94c-0.34,0-0.65-0.21-0.77-0.54c-0.81-2.15-1.22-4.39-1.22-6.63c0-2.25,0.41-4.49,1.23-6.64
			c0.12-0.32,0.43-0.53,0.77-0.53h33.65c0.35,0,0.65,0.21,0.78,0.54c0.48,1.28,0.82,2.58,1.02,3.89c0.01,0.1,0.03,0.19,0.04,0.29
			c0.11,0.81-12.2-0.14-12.2,0.68C30.23,30.08,29.7,36.78,29.7,36.78z M7.52,35.12h22.32l0.57-7.03c0.62-1.8,10.47-0.16,10.34-0.99
			c-0.15-1.02-0.4-2.02-0.74-3.02H7.52c-0.61,1.8-0.93,3.65-0.93,5.52C6.59,31.47,6.91,33.32,7.52,35.12L7.52,35.12z"/>
	</g>
	<g>
		<g>
			<path fill="#4D4D4F" stroke="#4D4D4F" stroke-width="0.5" stroke-miterlimit="10" d="M49.33,42.27H31.36
				c-1.01,0-1.84-0.82-1.84-1.84V28.68c0-1.01,0.83-1.84,1.84-1.84h17.97c1.01,0,1.84,0.82,1.84,1.84v11.76
				C51.16,41.45,50.34,42.27,49.33,42.27L49.33,42.27z M31.36,27.83c-0.47,0-0.85,0.38-0.85,0.85v11.76c0,0.47,0.38,0.85,0.85,0.85
				h17.97c0.47,0,0.85-0.38,0.85-0.85V28.68c0-0.47-0.38-0.85-0.85-0.85H31.36L31.36,27.83z"/>
		</g>
		<g>
			<path fill="#4D4D4F" stroke="#4D4D4F" stroke-width="0.5" stroke-miterlimit="10" d="M49.33,42.27H31.36
				c-0.76,0-1.45-0.48-1.72-1.19c-0.07-0.19-0.02-0.41,0.13-0.54l7.02-6.26c0.2-0.18,0.51-0.17,0.7,0.04
				c0.18,0.2,0.16,0.52-0.04,0.7l-6.71,5.98c0.16,0.17,0.38,0.27,0.62,0.27h17.97c0.24,0,0.46-0.1,0.62-0.27l-6.79-6.05
				c-0.21-0.18-0.22-0.49-0.04-0.7c0.18-0.2,0.5-0.22,0.7-0.04l7.09,6.33c0.15,0.14,0.21,0.35,0.13,0.54
				C50.77,41.8,50.08,42.27,49.33,42.27L49.33,42.27z"/>
		</g>
		<g>
			<path fill="#4D4D4F" stroke="#4D4D4F" stroke-width="0.5" stroke-miterlimit="10" d="M40.34,37.83c-0.12,0-0.24-0.04-0.33-0.13
				l-10.24-9.13c-0.15-0.14-0.21-0.35-0.13-0.54c0.27-0.71,0.96-1.19,1.72-1.19h17.97c0.76,0,1.45,0.48,1.71,1.19
				c0.07,0.19,0.02,0.41-0.13,0.54L40.67,37.7C40.58,37.79,40.46,37.83,40.34,37.83L40.34,37.83z M30.73,28.1l9.61,8.57l9.6-8.57
				c-0.16-0.17-0.38-0.27-0.62-0.27H31.36C31.12,27.83,30.89,27.93,30.73,28.1L30.73,28.1z"/>
		</g>
	</g>
</g>
</svg>
