<?xml version="1.0" encoding="utf-8"?>
<!-- Generator: Adobe Illustrator 15.0.0, SVG Export Plug-In . SVG Version: 6.00 Build 0)  -->
<!DOCTYPE svg PUBLIC "-//W3C//DTD SVG 1.1//EN" "http://www.w3.org/Graphics/SVG/1.1/DTD/svg11.dtd">
<svg version="1.1" id="Layer_1" xmlns="http://www.w3.org/2000/svg" xmlns:xlink="http://www.w3.org/1999/xlink" x="0px" y="0px"
	 width="56.5px" height="56.5px" viewBox="0 0 56.5 56.5" enable-background="new 0 0 56.5 56.5" xml:space="preserve">
<g>
	<g>
		
			<path fill="#35434C" stroke="#4D4D4F" stroke-width="0.25" stroke-linecap="round" stroke-linejoin="round" stroke-miterlimit="10" d="
			M41.43,37.95H15.86c-1.44,0-2.62-1.17-2.62-2.62V18.61c0-1.44,1.17-2.61,2.62-2.61h25.57c1.44,0,2.61,1.17,2.61,2.61v16.73
			C44.04,36.78,42.87,37.95,41.43,37.95L41.43,37.95z M15.86,17.4c-0.67,0-1.21,0.54-1.21,1.21v16.73c0,0.67,0.54,1.21,1.21,1.21
			h25.57c0.66,0,1.21-0.54,1.21-1.21V18.61c0-0.67-0.54-1.21-1.21-1.21H15.86L15.86,17.4z"/>
	</g>
	<g>
		
			<path fill="#35434C" stroke="#4D4D4F" stroke-width="0.25" stroke-linecap="round" stroke-linejoin="round" stroke-miterlimit="10" d="
			M41.43,37.95H15.86c-1.08,0-2.06-0.68-2.44-1.69c-0.1-0.27-0.03-0.58,0.19-0.78l9.98-8.9c0.29-0.26,0.73-0.23,0.99,0.06
			c0.26,0.29,0.23,0.74-0.06,0.99l-9.55,8.51c0.22,0.24,0.54,0.39,0.89,0.39h25.57c0.34,0,0.66-0.15,0.88-0.39l-9.66-8.61
			c-0.29-0.26-0.31-0.7-0.06-0.99c0.26-0.29,0.7-0.31,0.99-0.06l10.09,9c0.22,0.19,0.29,0.5,0.19,0.77
			C43.48,37.27,42.5,37.95,41.43,37.95L41.43,37.95z"/>
	</g>
	<g>
		
			<path fill="#35434C" stroke="#4D4D4F" stroke-width="0.25" stroke-linecap="round" stroke-linejoin="round" stroke-miterlimit="10" d="
			M28.64,31.63c-0.17,0-0.33-0.06-0.47-0.18L13.61,18.46c-0.22-0.19-0.29-0.5-0.19-0.78c0.38-1.01,1.37-1.69,2.44-1.69h25.57
			c1.08,0,2.06,0.68,2.44,1.69c0.1,0.27,0.03,0.58-0.19,0.77L29.11,31.45C28.98,31.57,28.81,31.63,28.64,31.63L28.64,31.63z
			 M14.97,17.79l13.67,12.19l13.66-12.19c-0.22-0.24-0.54-0.39-0.88-0.39H15.86C15.52,17.4,15.2,17.55,14.97,17.79L14.97,17.79z"/>
	</g>
</g>
</svg>
