<?xml version="1.0" encoding="utf-8"?>
<!-- Generator: Adobe Illustrator 15.0.0, SVG Export Plug-In . SVG Version: 6.00 Build 0)  -->
<!DOCTYPE svg PUBLIC "-//W3C//DTD SVG 1.1//EN" "http://www.w3.org/Graphics/SVG/1.1/DTD/svg11.dtd">
<svg version="1.1" id="Layer_2" xmlns="http://www.w3.org/2000/svg" xmlns:xlink="http://www.w3.org/1999/xlink" x="0px" y="0px"
	 width="56.5px" height="56.5px" viewBox="0 0 56.5 56.5" enable-background="new 0 0 56.5 56.5" xml:space="preserve">
<g>
	<g>
		
			<path fill="#4D4D4F" stroke="#4D4D4F" stroke-width="0.5" stroke-linecap="round" stroke-linejoin="round" stroke-miterlimit="10" d="
			M36.14,44.76c-6.08,0-12.38-2.81-17.28-7.71c-5.15-5.15-7.95-11.61-7.8-17.84l0.01-0.23l0.14-0.18c0.41-0.53,0.85-1.03,1.31-1.49
			c1.64-1.64,3.56-2.89,5.73-3.73c0.19-0.07,0.42-0.11,0.66-0.11c0.75,0,1.98,0.4,2.24,1.12c0.76,2.11,1.73,4.88,2.42,7.52
			c0.15,0.56-0.06,2.01-0.73,2.44l-2.49,1.58c-0.17,0.1-0.23,0.29-0.26,0.43c-0.08,0.42,0.07,0.97,0.41,1.43
			c0.98,1.34,2.12,2.68,3.39,3.97c1.28,1.26,2.61,2.4,3.95,3.37c0.68,0.5,1.62,0.55,1.86,0.15l1.58-2.5c0.49-0.76,2-0.77,2.02-0.77
			c0.15,0,0.28,0.01,0.39,0.04c3.23,0.72,5.14,1.34,7.59,2.45c0.76,0.34,1.31,1.99,0.95,2.89c-0.83,2.16-2.08,4.08-3.72,5.72
			c-0.46,0.45-0.96,0.89-1.49,1.31l-0.18,0.14L36.14,44.76L36.14,44.76z M12.46,19.48c-0.06,5.77,2.59,11.76,7.3,16.48l0.1,0.1
			c4.63,4.63,10.57,7.29,16.28,7.29l0.19,0c0.42-0.34,0.81-0.69,1.18-1.05c1.49-1.5,2.64-3.26,3.4-5.23
			c0.09-0.23-0.13-0.97-0.31-1.15c-2.27-1.01-4.12-1.61-7.24-2.31c-0.45-0.01-0.87,0.11-0.98,0.19l-1.51,2.42
			c-0.68,1.1-2.54,1.22-3.88,0.24c-1.39-1.01-2.77-2.19-4.12-3.51c-1.33-1.35-2.51-2.74-3.53-4.14c-0.57-0.78-0.81-1.72-0.65-2.53
			c0.11-0.59,0.43-1.07,0.9-1.35l2.49-1.58c0.05-0.1,0.16-0.7,0.12-0.89c-0.68-2.58-1.63-5.31-2.38-7.39
			c-0.05,0.01-0.53-0.19-0.92-0.19c-0.11,0-0.15,0.02-0.16,0.02c-1.98,0.77-3.74,1.91-5.24,3.41
			C13.15,18.67,12.79,19.06,12.46,19.48L12.46,19.48z"/>
	</g>
	<g>
		
			<path fill="#4D4D4F" stroke="#4D4D4F" stroke-width="0.5" stroke-linecap="round" stroke-linejoin="round" stroke-miterlimit="10" d="
			M42.24,29.11c-0.39,0-0.7-0.31-0.7-0.7c0-7.89-6.42-14.31-14.31-14.31c-0.39,0-0.7-0.31-0.7-0.7c0-0.39,0.31-0.7,0.7-0.7
			c8.67,0,15.72,7.05,15.72,15.72C42.95,28.79,42.63,29.11,42.24,29.11L42.24,29.11z"/>
	</g>
	<g>
		
			<path fill="#4D4D4F" stroke="#4D4D4F" stroke-width="0.5" stroke-linecap="round" stroke-linejoin="round" stroke-miterlimit="10" d="
			M37.83,29.11c-0.39,0-0.7-0.31-0.7-0.7c0-5.46-4.44-9.9-9.9-9.9c-0.39,0-0.7-0.31-0.7-0.7c0-0.39,0.31-0.7,0.7-0.7
			c6.24,0,11.31,5.07,11.31,11.31C38.53,28.79,38.22,29.11,37.83,29.11L37.83,29.11z"/>
	</g>
	<g>
		
			<path fill="#4D4D4F" stroke="#4D4D4F" stroke-width="0.5" stroke-linecap="round" stroke-linejoin="round" stroke-miterlimit="10" d="
			M33.18,29.11c-0.39,0-0.7-0.31-0.7-0.7c0-2.9-2.36-5.25-5.26-5.25c-0.39,0-0.7-0.31-0.7-0.7c0-0.39,0.31-0.7,0.7-0.7
			c3.67,0,6.66,2.99,6.66,6.66C33.89,28.79,33.57,29.11,33.18,29.11L33.18,29.11z"/>
	</g>
</g>
</svg>
