<?xml version="1.0" encoding="utf-8"?>
<!-- Generator: Adobe Illustrator 15.0.0, SVG Export Plug-In . SVG Version: 6.00 Build 0)  -->
<!DOCTYPE svg PUBLIC "-//W3C//DTD SVG 1.1//EN" "http://www.w3.org/Graphics/SVG/1.1/DTD/svg11.dtd">
<svg version="1.1" id="Layer_3" xmlns="http://www.w3.org/2000/svg" xmlns:xlink="http://www.w3.org/1999/xlink" x="0px" y="0px"
	 width="56.5px" height="56.5px" viewBox="0 0 56.5 56.5" enable-background="new 0 0 56.5 56.5" xml:space="preserve">
<g>
	<path fill="#4D4D4F" d="M17.43,30.6h6.31c-0.34-1.58-1.15-3.03-2.27-4.17c-0.34-0.34-0.68-0.65-1.08-0.93L17.43,30.6z M25.1,30.27
		l3.43,0.09l-5.75-8.77l-1.61,2.55c0.43,0.29,0.81,0.6,1.38,1.23c1.14,1.29,2.32,2.96,2.64,4.84L25.1,30.27z M16.25,24.29
		c-2.22,0-4.2,0.88-5.66,2.26c-1.43,1.37-2.32,3.3-2.32,5.41s0.89,4.03,2.32,5.4c1.46,1.4,3.43,2.26,5.66,2.26
		c2.19,0,3.78-0.93,5.21-2.34c1.37-1.31,2.31-3.12,2.41-5.1l-7.34-0.05l-0.46-0.03c-0.19,0-0.34-0.03-0.5-0.12
		c-0.51-0.3-0.52-0.72-0.24-1.21l0,0l3.75-5.92C18.23,24.54,17.2,24.29,16.25,24.29L16.25,24.29z M9.74,25.36
		c1.7-1.68,3.74-2.39,6.32-2.39c1.26,0,2.52,0.27,3.64,0.73l2.49-3.9l0.03-1.38c0-0.14,0-0.41,0.06-0.53
		c-0.09-0.03-0.47-0.09-0.56-0.12c-1.61-0.26-2.38-0.62-3.28-1.7c-0.35-0.42-0.3-1.07,0.14-1.33c0.47-0.29,0.98,0.13,1.24,0.56
		c0.35,0.52,1.14,0.88,2.2,1.03c1.23,0.2,2.99,0.09,4.75-0.03c0.53-0.03,0.67,0.15,0.73,0.67c0.03,0.52-0.85,0.73-1.38,0.76
		c-1.03,0.09-1.64,0.09-2.55,0.06c0.03,0.09,0.09,0.53,0.09,0.62l0.06,0.88l12.17,0.06c0.03-0.93,0-2.03-0.32-2.55
		c-0.35-0.61-1.26-1.26-2.41-1.2c-0.53,0-1.11,0-1.11-0.53c-0.03-0.55,0.53-0.86,1.06-0.91c1.41-0.12,2.75,0.6,3.52,1.85
		c0.62,0.96,0.73,2.28,0.58,3.9l2.46,3.78c1.12-0.46,2.52-0.73,3.78-0.73c2.55,0,4.54,0.69,6.22,2.38c1.7,1.65,2.87,3.95,2.87,6.5
		s-1.02,4.69-2.72,6.37c-1.67,1.65-3.78,2.76-6.33,2.76c-2.58,0-4.75-0.87-6.45-2.52c-1.67-1.68-2.84-4.17-2.84-6.72
		c0-2.55,0.94-4.42,2.61-6.07c0.41-0.41,1.17-0.91,1.64-1.23l-1.96-3.05l-5.89,10.23c-0.18,0.32-0.5,0.52-0.88,0.52l-4.51-0.05
		c-0.09,2.43-0.94,4.54-2.55,6.13c-1.67,1.65-3.73,2.84-6.28,2.84c-2.58,0-5.24-1.07-6.94-2.72c-1.67-1.68-2.52-3.9-2.52-6.45
		C6.89,29.34,8.07,27.01,9.74,25.36L9.74,25.36z M43.46,24.37c-0.96,0-2.16,0.29-3,0.6l3.78,6.1c0.28,0.49,0.43,1.11,0,1.44
		c-0.26,0.21-0.89-0.04-1.17-0.53l-3.9-6.28c-0.34,0.24-0.93,0.62-1.25,0.93c-1.4,1.37-2.27,3.29-2.27,5.39
		c0,2.1,0.87,4.02,2.27,5.4c1.43,1.4,3.35,2.25,5.53,2.25c2.14,0,4.1-0.85,5.5-2.25c1.4-1.37,2.27-3.29,2.27-5.4
		c0-2.1-0.87-4.02-2.27-5.39C47.56,25.25,45.6,24.37,43.46,24.37L43.46,24.37z M29.88,29.75l5.22-9.03l-11-0.03L29.88,29.75z"/>
</g>
</svg>
