<?xml version="1.0" encoding="utf-8"?>
<!-- Generator: Adobe Illustrator 15.0.0, SVG Export Plug-In . SVG Version: 6.00 Build 0)  -->
<!DOCTYPE svg PUBLIC "-//W3C//DTD SVG 1.1//EN" "http://www.w3.org/Graphics/SVG/1.1/DTD/svg11.dtd">
<svg version="1.1" id="Layer_2" xmlns="http://www.w3.org/2000/svg" xmlns:xlink="http://www.w3.org/1999/xlink" x="0px" y="0px"
	 width="56.5px" height="56.5px" viewBox="0 0 56.5 56.5" enable-background="new 0 0 56.5 56.5" xml:space="preserve">
<g>
	<g>
		<path fill="#35434C" d="M15.48,47.02c-0.12,0-0.23-0.03-0.34-0.08c-0.27-0.13-0.44-0.41-0.44-0.71v-5.1h-2.26
			c-1.3,0-2.35-1.06-2.35-2.35V25.06c0-1.3,1.06-2.35,2.35-2.35h20.41c1.3,0,2.36,1.06,2.36,2.35v13.72c0,1.3-1.06,2.35-2.36,2.35
			H23.2l-7.24,5.72C15.82,46.96,15.65,47.02,15.48,47.02L15.48,47.02z M12.44,24.28c-0.43,0-0.78,0.35-0.78,0.78v13.72
			c0,0.43,0.35,0.78,0.78,0.78h3.04c0.43,0,0.78,0.35,0.78,0.79v4.27l6.18-4.88c0.14-0.11,0.31-0.17,0.49-0.17h9.92
			c0.43,0,0.78-0.35,0.78-0.78V25.06c0-0.43-0.35-0.78-0.78-0.78H12.44L12.44,24.28z"/>
	</g>
	<g>
		<path fill="#35434C" d="M42.24,35.64c-0.17,0-0.35-0.06-0.49-0.17l-7.45-5.89c-0.34-0.27-0.4-0.76-0.13-1.1
			c0.27-0.34,0.76-0.4,1.1-0.13l6.18,4.88v-4.27c0-0.43,0.35-0.78,0.79-0.78h3.04c0.43,0,0.79-0.35,0.79-0.79V13.68
			c0-0.43-0.35-0.79-0.79-0.79H24.87c-0.43,0-0.79,0.35-0.79,0.79v9.42c0,0.43-0.35,0.79-0.78,0.79s-0.79-0.35-0.79-0.79v-9.42
			c0-1.3,1.06-2.36,2.36-2.36h20.41c1.3,0,2.35,1.06,2.35,2.36V27.4c0,1.3-1.06,2.36-2.35,2.36h-2.26v5.1c0,0.3-0.17,0.58-0.44,0.71
			C42.47,35.61,42.35,35.64,42.24,35.64L42.24,35.64z"/>
	</g>
</g>
<g>
	<g>
		<path fill="#35434C" d="M29.26,31.13H15.2c-0.35,0-0.63-0.27-0.63-0.6s0.28-0.6,0.63-0.6h14.06c0.34,0,0.62,0.27,0.62,0.6
			S29.6,31.13,29.26,31.13L29.26,31.13z"/>
	</g>
	<g>
		<path fill="#35434C" d="M29.26,34.81H15.2c-0.35,0-0.63-0.27-0.63-0.6c0-0.33,0.28-0.59,0.63-0.59h14.06
			c0.34,0,0.62,0.27,0.62,0.59C29.88,34.54,29.6,34.81,29.26,34.81L29.26,34.81z"/>
	</g>
</g>
<g>
	<g>
		<path fill="#35434C" d="M42.27,20.18H28.22c-0.35,0-0.63-0.27-0.63-0.6c0-0.33,0.28-0.6,0.63-0.6h14.06c0.34,0,0.62,0.27,0.62,0.6
			C42.9,19.91,42.62,20.18,42.27,20.18L42.27,20.18z"/>
	</g>
	<g>
		<path fill="#35434C" d="M42.27,23.86H28.22c-0.35,0-0.63-0.27-0.63-0.6c0-0.33,0.28-0.59,0.63-0.59h14.06
			c0.34,0,0.62,0.27,0.62,0.59C42.9,23.59,42.62,23.86,42.27,23.86L42.27,23.86z"/>
	</g>
</g>
</svg>
