<?xml version="1.0" encoding="utf-8"?>
<!-- Generator: Adobe Illustrator 15.0.0, SVG Export Plug-In . SVG Version: 6.00 Build 0)  -->
<!DOCTYPE svg PUBLIC "-//W3C//DTD SVG 1.1//EN" "http://www.w3.org/Graphics/SVG/1.1/DTD/svg11.dtd">
<svg version="1.1" id="Layer_3" xmlns="http://www.w3.org/2000/svg" xmlns:xlink="http://www.w3.org/1999/xlink" x="0px" y="0px"
	 width="56.5px" height="56.5px" viewBox="0 0 56.5 56.5" enable-background="new 0 0 56.5 56.5" xml:space="preserve">
<g>
	<g>
		<path fill="#35434C" d="M28.53,43.1c-8.67,0-15.72-7.05-15.72-15.72c0-8.67,7.05-15.72,15.72-15.72c8.67,0,15.71,7.05,15.71,15.72
			C44.25,36.05,37.2,43.1,28.53,43.1L28.53,43.1z M28.53,13.08c-7.89,0-14.31,6.42-14.31,14.31s6.42,14.31,14.31,14.31
			c7.89,0,14.31-6.42,14.31-14.31S36.42,13.08,28.53,13.08L28.53,13.08z"/>
	</g>
	<g>
		<path fill="#35434C" d="M28.53,28.09c-0.39,0-0.7-0.31-0.7-0.7v-9.72c0-0.39,0.31-0.7,0.7-0.7s0.7,0.32,0.7,0.7v9.72
			C29.24,27.78,28.92,28.09,28.53,28.09L28.53,28.09z"/>
	</g>
	<g>
		<g>
			<path fill="#35434C" d="M34.36,17.93c-0.11,0-0.22-0.03-0.32-0.09c-0.31-0.18-0.41-0.57-0.23-0.87l0.38-0.65
				c0.18-0.31,0.57-0.41,0.88-0.23c0.31,0.18,0.41,0.57,0.23,0.88l-0.38,0.65C34.8,17.81,34.58,17.93,34.36,17.93L34.36,17.93z"/>
		</g>
		<g>
			<path fill="#35434C" d="M22.32,38.78c-0.11,0-0.22-0.03-0.32-0.08c-0.31-0.18-0.42-0.57-0.24-0.88l0.37-0.65
				c0.18-0.31,0.57-0.41,0.87-0.24c0.31,0.18,0.42,0.57,0.24,0.87l-0.37,0.65C22.76,38.66,22.55,38.78,22.32,38.78L22.32,38.78z"/>
		</g>
		<g>
			<path fill="#35434C" d="M39.28,34.23c-0.11,0-0.22-0.03-0.32-0.09l-0.65-0.37c-0.31-0.18-0.41-0.57-0.24-0.87
				c0.18-0.31,0.57-0.41,0.88-0.24l0.65,0.37c0.31,0.18,0.41,0.57,0.24,0.88C39.72,34.12,39.5,34.23,39.28,34.23L39.28,34.23z"/>
		</g>
		<g>
			<path fill="#35434C" d="M18.44,22.2c-0.11,0-0.22-0.03-0.32-0.08l-0.65-0.38c-0.31-0.18-0.41-0.57-0.24-0.87
				c0.18-0.31,0.57-0.41,0.87-0.24L18.76,21c0.31,0.18,0.41,0.57,0.24,0.87C18.87,22.08,18.66,22.2,18.44,22.2L18.44,22.2z"/>
		</g>
	</g>
	<g>
		<g>
			<path fill="#35434C" d="M22.7,17.93c-0.22,0-0.44-0.12-0.56-0.32l-0.38-0.65c-0.18-0.31-0.07-0.7,0.23-0.88
				c0.3-0.18,0.7-0.07,0.88,0.23l0.38,0.65c0.18,0.3,0.07,0.7-0.23,0.87C22.92,17.9,22.81,17.93,22.7,17.93L22.7,17.93z"/>
		</g>
		<g>
			<path fill="#35434C" d="M34.75,38.78c-0.22,0-0.43-0.11-0.55-0.32l-0.38-0.65c-0.18-0.31-0.07-0.7,0.23-0.88
				c0.3-0.18,0.7-0.08,0.88,0.23l0.38,0.65c0.18,0.31,0.07,0.7-0.23,0.88C34.97,38.75,34.85,38.78,34.75,38.78L34.75,38.78z"/>
		</g>
		<g>
			<path fill="#35434C" d="M17.78,34.23c-0.22,0-0.44-0.12-0.56-0.32c-0.18-0.31-0.07-0.7,0.24-0.87l0.65-0.37
				c0.3-0.17,0.7-0.07,0.87,0.24c0.18,0.31,0.07,0.7-0.24,0.88l-0.65,0.37C18,34.21,17.89,34.23,17.78,34.23L17.78,34.23z"/>
		</g>
		<g>
			<path fill="#35434C" d="M38.63,22.2c-0.22,0-0.44-0.11-0.56-0.32c-0.18-0.31-0.07-0.7,0.24-0.88l0.65-0.38
				c0.3-0.18,0.7-0.07,0.88,0.23c0.18,0.31,0.07,0.7-0.24,0.88l-0.65,0.38C38.85,22.17,38.74,22.2,38.63,22.2L38.63,22.2z"/>
		</g>
	</g>
	<g>
		<g>
			<path fill="#35434C" d="M16.87,28.03L16.87,28.03l-0.75,0c-0.35,0-0.64-0.29-0.64-0.64c0-0.35,0.29-0.64,0.64-0.64h0l0.75,0
				c0.35,0,0.64,0.29,0.64,0.64C17.51,27.74,17.23,28.03,16.87,28.03L16.87,28.03z"/>
		</g>
		<g>
			<path fill="#35434C" d="M40.19,28.03c-0.35,0-0.64-0.29-0.64-0.64c0-0.35,0.28-0.64,0.64-0.64l0.76,0c0,0,0,0,0,0
				c0.35,0,0.64,0.29,0.64,0.64c0,0.35-0.28,0.64-0.64,0.64L40.19,28.03C40.19,28.03,40.19,28.03,40.19,28.03L40.19,28.03z"/>
		</g>
		<g>
			<path fill="#35434C" d="M28.53,40.44C28.53,40.44,28.53,40.44,28.53,40.44c-0.36,0-0.64-0.29-0.64-0.64l0.01-0.76
				c0-0.35,0.29-0.64,0.64-0.64c0,0,0,0,0,0c0.36,0,0.64,0.29,0.64,0.65l-0.01,0.76C29.17,40.16,28.88,40.44,28.53,40.44
				L28.53,40.44z"/>
		</g>
		<g>
			<path fill="#35434C" d="M28.53,16.36c-0.35,0-0.64-0.29-0.64-0.64v-0.75c0-0.35,0.29-0.64,0.64-0.64c0.35,0,0.64,0.29,0.64,0.64
				v0.75C29.17,16.08,28.89,16.36,28.53,16.36L28.53,16.36z"/>
		</g>
	</g>
	<g>
		<path fill="#35434C" d="M24.28,32.34c-0.18,0-0.36-0.07-0.5-0.21c-0.27-0.27-0.27-0.72,0-1l4.09-4.08c0.27-0.27,0.72-0.27,1,0
			c0.27,0.28,0.27,0.72,0,1l-4.09,4.08C24.64,32.27,24.46,32.34,24.28,32.34L24.28,32.34z"/>
	</g>
</g>
</svg>
