<?xml version="1.0" encoding="utf-8"?>
<!-- Generator: Adobe Illustrator 15.0.0, SVG Export Plug-In . SVG Version: 6.00 Build 0)  -->
<!DOCTYPE svg PUBLIC "-//W3C//DTD SVG 1.1//EN" "http://www.w3.org/Graphics/SVG/1.1/DTD/svg11.dtd">
<svg version="1.1" id="Layer_2" xmlns="http://www.w3.org/2000/svg" xmlns:xlink="http://www.w3.org/1999/xlink" x="0px" y="0px"
	 width="56.5px" height="56.5px" viewBox="0 0 56.5 56.5" enable-background="new 0 0 56.5 56.5" xml:space="preserve">
<path fill="#35434C" d="M29.38,45.03c-3.43,0-6.81-2.82-12.22-8.38c-1.36-1.43-2.21-4.01-2.22-5.58V17.72
	c0-1.79,1.29-3.55,3.02-4.09c7.37-2.44,15.46-2.45,22.86,0c1.69,0.53,3.01,2.33,3.01,4.09v13.35c-0.01,1.58-0.86,4.16-2.22,5.58
	C36.19,42.21,32.81,45.03,29.38,45.03L29.38,45.03z M29.38,13.49c-3.66,0-7.28,0.58-10.76,1.74c-1.13,0.36-2.04,1.58-2.04,2.74V31
	c0.01,1.26,0.75,3.43,1.8,4.54c5.02,5.15,8.1,7.77,10.98,7.77c2.89,0,5.97-2.62,11-7.78c1.05-1.09,1.79-3.27,1.8-4.54V17.97
	c0-1.14-0.93-2.39-2.03-2.74C36.65,14.08,33.04,13.49,29.38,13.49L29.38,13.49z"/>
<path fill="#35434C" d="M29.06,15.27l0.08,26.21c0,0,0.24,0.47,1.24-0.16c2.62-1.67,9.41-6.14,9.81-9.93
	c0.34-3.21,0.17-8.53,0.17-11.37C40.36,17.62,39.63,15.81,29.06,15.27z"/>
</svg>
