<?xml version="1.0" encoding="utf-8"?>
<!-- Generator: Adobe Illustrator 15.0.0, SVG Export Plug-In . SVG Version: 6.00 Build 0)  -->
<!DOCTYPE svg PUBLIC "-//W3C//DTD SVG 1.1//EN" "http://www.w3.org/Graphics/SVG/1.1/DTD/svg11.dtd">
<svg version="1.1" id="Layer_3" xmlns="http://www.w3.org/2000/svg" xmlns:xlink="http://www.w3.org/1999/xlink" x="0px" y="0px"
	 width="56.5px" height="56.5px" viewBox="0 0 56.5 56.5" enable-background="new 0 0 56.5 56.5" xml:space="preserve">
<g>
	<g>
		<path fill="#35434C" d="M27.43,43.13c-0.12,0-0.23-0.03-0.34-0.09c-0.04-0.02-0.07-0.04-0.1-0.07c-0.06-0.04-0.23-0.16-0.48-0.34
			c-1.11-0.77-3.69-2.57-5.4-3.88c-6.36-4.95-9.74-8.62-10.33-11.22c-0.3-0.93-0.47-1.97-0.48-3.04c-0.04-2.85,1.04-5.6,2.95-7.54
			c1.72-1.75,3.98-2.72,6.35-2.73h0c3.01,0,5.72,1.36,7.51,3.69c1.74-2.41,4.44-3.83,7.41-3.87l0.18,0c5.1,0,9.31,4.5,9.37,10.04
			c0.01,1.07-0.13,2.12-0.42,3.11c-0.51,2.55-3.88,6.42-10.01,11.43c-2.42,2-4.38,3.48-5.83,4.4C27.7,43.1,27.56,43.13,27.43,43.13
			L27.43,43.13z M19.7,15.63c-2.09,0.01-4,0.83-5.45,2.31c-1.65,1.68-2.57,4.06-2.54,6.54c0.01,0.93,0.16,1.83,0.43,2.68
			c0.37,1.6,2.36,4.65,9.84,10.48c1.68,1.29,4.24,3.08,5.34,3.84c0.05,0.03,0.09,0.07,0.14,0.1c1.36-0.9,3.14-2.26,5.3-4.04
			c7.32-5.99,9.22-9.12,9.54-10.68c0.27-0.92,0.39-1.83,0.38-2.76c-0.06-4.77-3.63-8.65-7.97-8.65l-0.16,0
			c-2.83,0.04-5.37,1.57-6.81,4.09c-0.12,0.22-0.35,0.35-0.6,0.36c0,0-0.01,0-0.01,0c-0.25,0-0.47-0.13-0.6-0.34
			C25.04,17.1,22.49,15.63,19.7,15.63L19.7,15.63z"/>
	</g>
	<g>
		<path fill="#35434C" d="M38.58,26.81c-0.05,0-0.1,0-0.15-0.02c-0.38-0.08-0.62-0.45-0.54-0.83L38,25.54
			c0.13-0.44,0.19-0.91,0.19-1.38c-0.03-2.36-1.61-4.21-3.59-4.21c-0.39,0-0.71-0.31-0.71-0.7c0-0.39,0.31-0.7,0.7-0.7h0
			c2.76,0,4.95,2.46,5,5.6c0.01,0.62-0.07,1.22-0.24,1.79l-0.08,0.32C39.2,26.58,38.91,26.81,38.58,26.81L38.58,26.81z"/>
	</g>
</g>
</svg>
