<?xml version="1.0" encoding="utf-8"?>
<!-- Generator: Adobe Illustrator 15.0.0, SVG Export Plug-In . SVG Version: 6.00 Build 0)  -->
<!DOCTYPE svg PUBLIC "-//W3C//DTD SVG 1.1//EN" "http://www.w3.org/Graphics/SVG/1.1/DTD/svg11.dtd">
<svg version="1.1" id="Layer_2" xmlns="http://www.w3.org/2000/svg" xmlns:xlink="http://www.w3.org/1999/xlink" x="0px" y="0px"
	 width="56.5px" height="56.5px" viewBox="0 0 56.5 56.5" enable-background="new 0 0 56.5 56.5" xml:space="preserve">
<g>
	<g>
		<path fill="#35434C" d="M29.84,21.75c0,0.24,0,0.49,0,0.73c0.48-0.18,0.9-0.27,1.24-0.29c0.35-0.01,0.65,0.08,0.9,0.27
			c0.2,0.14,0.36,0.31,0.47,0.5c0.11,0.2,0.16,0.4,0.16,0.6c0,0.23-0.08,0.46-0.25,0.69c-0.17,0.24-0.36,0.41-0.6,0.51
			c-0.44,0.2-0.73,0.09-0.86-0.32c-0.15-0.49-0.5-0.7-1.07-0.62c0,0.94,0,1.88,0,2.82c0.56-0.11,1.01-0.18,1.34-0.21
			c0.33-0.03,0.63,0.02,0.89,0.15c0.28,0.13,0.5,0.33,0.65,0.61c0.15,0.28,0.23,0.63,0.23,1.04c0,0.52-0.12,1.05-0.36,1.6
			c-0.24,0.55-0.6,1.08-1.07,1.58c-0.47,0.5-1.03,0.93-1.67,1.29c0,0.56,0,1.12,0,1.69c0,0.27-0.03,0.47-0.08,0.62
			c-0.05,0.15-0.17,0.26-0.34,0.35c-0.16,0.08-0.27,0.08-0.34,0.01c-0.07-0.07-0.1-0.21-0.1-0.41c0-0.61,0-1.22,0-1.83
			c-0.53,0.19-0.99,0.28-1.38,0.27c-0.4-0.01-0.73-0.09-0.99-0.26c-0.26-0.17-0.46-0.38-0.59-0.63c-0.13-0.25-0.19-0.52-0.19-0.81
			c0-0.22,0.08-0.45,0.25-0.69c0.17-0.25,0.38-0.42,0.63-0.54c0.2-0.09,0.37-0.12,0.51-0.09c0.14,0.03,0.24,0.12,0.29,0.27
			c0.12,0.31,0.23,0.55,0.32,0.7c0.09,0.15,0.23,0.27,0.41,0.35c0.18,0.08,0.43,0.08,0.73,0.03c0-1.05,0-2.1,0-3.15
			c-0.6,0.12-1.11,0.17-1.52,0.15c-0.4-0.02-0.73-0.16-0.99-0.43s-0.38-0.7-0.38-1.3c0-0.78,0.25-1.52,0.74-2.23
			c0.49-0.72,1.21-1.33,2.14-1.86c0-0.24,0-0.48,0-0.72c0-0.38,0.14-0.64,0.43-0.77C29.7,21.27,29.84,21.38,29.84,21.75z
			 M28.98,26.8c0-0.86,0-1.73,0-2.59c-0.38,0.29-0.67,0.58-0.88,0.86c-0.21,0.28-0.32,0.61-0.32,0.99c0,0.36,0.1,0.58,0.3,0.67
			C28.27,26.82,28.57,26.85,28.98,26.8z M29.84,28.41c0,0.99,0,1.98,0,2.97c0.46-0.31,0.81-0.65,1.06-1.04
			c0.25-0.39,0.37-0.77,0.37-1.14c0-0.39-0.12-0.64-0.36-0.74C30.67,28.35,30.31,28.33,29.84,28.41z"/>
	</g>
	<g>
		<path fill="#35434C" d="M18.85,41.57c-2.39,0-4.54-0.72-6.59-2.19c-0.18-0.13-0.29-0.35-0.29-0.57v-18.3
			c0-0.26,0.15-0.51,0.38-0.63c0.23-0.12,0.52-0.1,0.73,0.05c1.8,1.29,3.69,1.92,5.77,1.92c3.35,0,6.85-1.66,10.23-3.26
			c3.52-1.67,7.17-3.4,10.83-3.4c2.39,0,4.55,0.72,6.59,2.19c0.18,0.13,0.29,0.35,0.29,0.57v18.3c0,0.26-0.15,0.51-0.38,0.63
			c-0.23,0.12-0.52,0.1-0.73-0.06c-1.8-1.29-3.69-1.92-5.77-1.92c-3.35,0-6.85,1.66-10.23,3.26C26.17,39.84,22.52,41.57,18.85,41.57
			L18.85,41.57L18.85,41.57z M13.38,38.44c1.71,1.16,3.51,1.72,5.48,1.72h0c3.35,0,6.85-1.66,10.23-3.26
			c3.52-1.67,7.17-3.4,10.83-3.4c1.96,0,3.76,0.48,5.48,1.47V18.33c-1.71-1.16-3.51-1.72-5.48-1.72c-3.35,0-6.85,1.66-10.23,3.26
			c-3.52,1.67-7.17,3.4-10.84,3.4c-1.96,0-3.76-0.48-5.48-1.47V38.44L13.38,38.44z"/>
	</g>
	<g>
		<path fill="#35434C" d="M18.84,44.56c-2.18,0-4.38-0.61-6.58-2.19c-0.32-0.23-0.39-0.67-0.16-0.98c0.23-0.32,0.67-0.39,0.98-0.16
			c5.23,3.77,10.47,1.29,16-1.34c5.66-2.69,11.52-5.46,17.43-1.21c0.32,0.23,0.39,0.67,0.16,0.98c-0.23,0.31-0.67,0.39-0.98,0.16
			c-5.23-3.77-10.46-1.29-16,1.34C26.14,42.84,22.51,44.56,18.84,44.56L18.84,44.56z"/>
	</g>
	<g>
		<g>
			<g>
				<path fill="#35434C" d="M18.85,27.05c-0.78,0-1.54-0.08-2.27-0.23c-0.38-0.08-0.62-0.45-0.54-0.83
					c0.08-0.38,0.45-0.62,0.83-0.54c2.14,0.45,4.5,0.15,7.44-0.95c0.36-0.14,0.77,0.05,0.91,0.41c0.14,0.36-0.05,0.77-0.41,0.91
					C22.57,26.64,20.63,27.05,18.85,27.05L18.85,27.05z"/>
			</g>
			<g>
				<path fill="#35434C" d="M34.23,21.59c-0.29,0-0.55-0.17-0.66-0.46c-0.14-0.36,0.05-0.77,0.41-0.91c3.2-1.2,5.81-1.52,8.22-1.01
					c0.38,0.08,0.62,0.45,0.54,0.83c-0.08,0.38-0.45,0.62-0.83,0.54c-2.14-0.45-4.5-0.15-7.44,0.95
					C34.39,21.58,34.31,21.59,34.23,21.59L34.23,21.59z"/>
			</g>
		</g>
		<g>
			<g>
				<path fill="#35434C" d="M18.85,37.78c-0.78,0-1.54-0.08-2.27-0.23c-0.38-0.08-0.62-0.45-0.54-0.83
					c0.08-0.38,0.45-0.62,0.83-0.54c2.14,0.45,4.5,0.15,7.44-0.95c0.36-0.14,0.77,0.05,0.91,0.41c0.14,0.36-0.05,0.77-0.41,0.91
					C22.57,37.38,20.63,37.78,18.85,37.78L18.85,37.78z"/>
			</g>
			<g>
				<path fill="#35434C" d="M34.23,32.32c-0.29,0-0.55-0.17-0.66-0.46c-0.14-0.36,0.05-0.77,0.41-0.91c3.2-1.19,5.81-1.52,8.22-1.01
					c0.38,0.08,0.62,0.45,0.54,0.83c-0.08,0.38-0.45,0.62-0.83,0.54c-2.14-0.45-4.5-0.15-7.44,0.95
					C34.39,32.31,34.31,32.32,34.23,32.32L34.23,32.32z"/>
			</g>
		</g>
	</g>
</g>
</svg>
