<?xml version="1.0" encoding="utf-8"?>
<!-- Generator: Adobe Illustrator 15.0.0, SVG Export Plug-In . SVG Version: 6.00 Build 0)  -->
<!DOCTYPE svg PUBLIC "-//W3C//DTD SVG 1.1//EN" "http://www.w3.org/Graphics/SVG/1.1/DTD/svg11.dtd">
<svg version="1.1" id="Layer_2" xmlns="http://www.w3.org/2000/svg" xmlns:xlink="http://www.w3.org/1999/xlink" x="0px" y="0px"
	 width="56.5px" height="56.5px" viewBox="0 0 56.5 56.5" enable-background="new 0 0 56.5 56.5" xml:space="preserve">
<g>
	<g>
		<path fill="#4D4D4F" d="M37.93,45.5c-6.08,0-12.38-2.81-17.28-7.71c-5.14-5.15-7.95-11.61-7.8-17.84l0.01-0.24l0.15-0.18
			c0.43-0.55,0.86-1.04,1.31-1.48c1.64-1.64,3.56-2.89,5.72-3.73c0.19-0.08,0.42-0.11,0.66-0.11c0.75,0,1.98,0.4,2.24,1.12
			c0.76,2.12,1.73,4.88,2.42,7.52c0.13,0.5-0.01,1.98-0.73,2.44l-2.49,1.58c-0.17,0.1-0.24,0.29-0.26,0.43
			c-0.08,0.42,0.07,0.97,0.41,1.43c0.99,1.35,2.13,2.69,3.39,3.97c1.28,1.26,2.61,2.39,3.95,3.37c0.68,0.5,1.61,0.54,1.85,0.15
			l1.59-2.5c0.41-0.64,1.59-0.77,2.02-0.77c0.15,0,0.28,0.01,0.39,0.04c3.23,0.72,5.14,1.34,7.59,2.45
			c0.76,0.34,1.31,1.99,0.95,2.89c-0.83,2.16-2.09,4.08-3.72,5.72c-0.46,0.46-0.96,0.9-1.49,1.31l-0.18,0.14L37.93,45.5L37.93,45.5z
			 M14.24,20.22c-0.06,5.77,2.59,11.76,7.3,16.47l0.1,0.1c4.63,4.63,10.57,7.29,16.28,7.29l0.19,0c0.42-0.34,0.81-0.69,1.18-1.05
			c1.49-1.5,2.64-3.26,3.4-5.23c0.09-0.23-0.13-0.97-0.3-1.15c-2.27-1.01-4.12-1.61-7.24-2.31c-0.45,0.01-0.87,0.12-0.98,0.19
			l-1.52,2.42c-0.67,1.09-2.53,1.22-3.88,0.23C27.39,36.19,26,35,24.66,33.69c-1.32-1.34-2.5-2.73-3.53-4.14
			c-0.57-0.79-0.81-1.71-0.65-2.53c0.11-0.59,0.43-1.07,0.9-1.36l2.49-1.58c0.05-0.1,0.16-0.71,0.12-0.9
			c-0.68-2.57-1.63-5.3-2.38-7.39c-0.07-0.02-0.53-0.19-0.92-0.19c-0.11,0-0.15,0.02-0.15,0.02c-1.98,0.77-3.74,1.91-5.24,3.41
			C14.94,19.4,14.59,19.78,14.24,20.22L14.24,20.22z"/>
	</g>
	<g>
		<g>
			<path fill="#4D4D4F" d="M37.79,30.97c-0.19,0-0.38-0.08-0.52-0.22c-0.26-0.28-0.25-0.73,0.04-1l3.15-2.93l-3.15-2.94
				c-0.28-0.26-0.3-0.71-0.03-0.99c0.26-0.28,0.71-0.3,0.99-0.03l3.7,3.45c0.14,0.13,0.22,0.32,0.22,0.51s-0.08,0.38-0.22,0.52
				l-3.7,3.45C38.13,30.91,37.96,30.97,37.79,30.97L37.79,30.97z"/>
		</g>
		<g>
			<path fill="#4D4D4F" d="M40.61,27.53H29.58c-0.39,0-0.7-0.31-0.7-0.7s0.31-0.7,0.7-0.7h11.03c0.39,0,0.7,0.31,0.7,0.7
				S41,27.53,40.61,27.53L40.61,27.53z"/>
		</g>
	</g>
	<g>
		<g>
			<path fill="#4D4D4F" d="M33.28,22.88c-0.17,0-0.34-0.06-0.48-0.19l-3.7-3.45c-0.14-0.13-0.22-0.32-0.22-0.51
				c0-0.19,0.08-0.38,0.22-0.52l3.7-3.45c0.29-0.26,0.73-0.25,1,0.04c0.26,0.28,0.25,0.73-0.04,1l-3.15,2.93l3.15,2.94
				c0.28,0.26,0.3,0.71,0.03,0.99C33.66,22.81,33.47,22.88,33.28,22.88L33.28,22.88z"/>
		</g>
		<g>
			<path fill="#4D4D4F" d="M41.49,19.43H30.46c-0.39,0-0.7-0.31-0.7-0.7c0-0.39,0.31-0.7,0.7-0.7h11.03c0.39,0,0.7,0.31,0.7,0.7
				C42.19,19.11,41.88,19.43,41.49,19.43L41.49,19.43z"/>
		</g>
	</g>
</g>
</svg>
