<?xml version="1.0" encoding="utf-8"?>
<!-- Generator: Adobe Illustrator 15.0.0, SVG Export Plug-In . SVG Version: 6.00 Build 0)  -->
<!DOCTYPE svg PUBLIC "-//W3C//DTD SVG 1.1//EN" "http://www.w3.org/Graphics/SVG/1.1/DTD/svg11.dtd">
<svg version="1.1" id="Layer_3" xmlns="http://www.w3.org/2000/svg" xmlns:xlink="http://www.w3.org/1999/xlink" x="0px" y="0px"
	 width="56.5px" height="56.5px" viewBox="0 0 56.5 56.5" enable-background="new 0 0 56.5 56.5" xml:space="preserve">
<g>
	<g>
		<path fill="#4D4D4F" d="M41.91,45.89H16.69c-0.42,0-0.76-0.34-0.76-0.76V12.64c0-0.42,0.34-0.76,0.76-0.76h5.55
			c0.42,0,0.76,0.34,0.76,0.76c0,0.42-0.34,0.76-0.76,0.76h-4.79v30.95h23.69V13.41h-4.95c-0.42,0-0.76-0.34-0.76-0.76
			c0-0.42,0.34-0.76,0.76-0.76h5.72c0.42,0,0.76,0.34,0.76,0.76v32.48C42.67,45.55,42.33,45.89,41.91,45.89L41.91,45.89z"/>
	</g>
	<g>
		<path fill="#4D4D4F" d="M34.45,15.32H24.14c-1.37,0-2.48-1.11-2.48-2.48s1.11-2.48,2.48-2.48h10.32c1.37,0,2.48,1.11,2.48,2.48
			S35.83,15.32,34.45,15.32L34.45,15.32z M24.14,11.88c-0.53,0-0.96,0.43-0.96,0.95c0,0.53,0.43,0.96,0.96,0.96h10.32
			c0.53,0,0.96-0.43,0.96-0.96c0-0.53-0.43-0.95-0.96-0.95H24.14L24.14,11.88z"/>
	</g>
	<g>
		<path fill="#4D4D4F" d="M24.1,21.27h-1.76c-0.39,0-0.71,0.32-0.71,0.71v1.76c0,0.39,0.32,0.7,0.71,0.7h1.76
			c0.39,0,0.7-0.32,0.7-0.7v-1.76C24.8,21.59,24.49,21.27,24.1,21.27L24.1,21.27z"/>
		<g>
			<path fill="#4D4D4F" d="M36.97,23.63h-9.82c-0.42,0-0.76-0.34-0.76-0.76s0.34-0.76,0.76-0.76h9.82c0.42,0,0.76,0.34,0.76,0.76
				S37.39,23.63,36.97,23.63L36.97,23.63z"/>
		</g>
		<path fill="#4D4D4F" d="M24.1,31.76h-1.76c-0.39,0-0.71,0.31-0.71,0.71v1.76c0,0.39,0.32,0.71,0.71,0.71h1.76
			c0.39,0,0.7-0.32,0.7-0.71v-1.76C24.8,32.07,24.49,31.76,24.1,31.76L24.1,31.76z"/>
		<g>
			<path fill="#4D4D4F" d="M36.97,34.11h-9.82c-0.42,0-0.76-0.34-0.76-0.76c0-0.42,0.34-0.76,0.76-0.76h9.82
				c0.42,0,0.76,0.34,0.76,0.76C37.73,33.77,37.39,34.11,36.97,34.11L36.97,34.11z"/>
		</g>
		<path fill="#4D4D4F" d="M24.1,26.52h-1.76c-0.39,0-0.71,0.32-0.71,0.71v1.76c0,0.39,0.32,0.71,0.71,0.71h1.76
			c0.39,0,0.7-0.32,0.7-0.71v-1.76C24.8,26.83,24.49,26.52,24.1,26.52L24.1,26.52z"/>
		<g>
			<path fill="#4D4D4F" d="M36.97,28.87h-9.82c-0.42,0-0.76-0.34-0.76-0.76c0-0.42,0.34-0.76,0.76-0.76h9.82
				c0.42,0,0.76,0.34,0.76,0.76C37.73,28.53,37.39,28.87,36.97,28.87L36.97,28.87z"/>
		</g>
	</g>
	<g>
		<path fill="#4D4D4F" stroke="#4D4D4F" stroke-width="0.5" stroke-miterlimit="10" d="M36.22,41.47c-0.09,0-0.18-0.04-0.24-0.1
			l-4.47-4.69c-0.13-0.13-0.12-0.35,0.01-0.48c0.13-0.13,0.35-0.12,0.48,0.01l4.21,4.42l9.63-11.74c0.12-0.14,0.33-0.17,0.47-0.05
			c0.14,0.12,0.17,0.33,0.05,0.47l-9.87,12.04c-0.06,0.07-0.15,0.12-0.25,0.12C36.23,41.47,36.23,41.47,36.22,41.47L36.22,41.47z"/>
	</g>
</g>
</svg>
