<?xml version="1.0" encoding="utf-8"?>
<!-- Generator: Adobe Illustrator 15.0.0, SVG Export Plug-In . SVG Version: 6.00 Build 0)  -->
<!DOCTYPE svg PUBLIC "-//W3C//DTD SVG 1.1//EN" "http://www.w3.org/Graphics/SVG/1.1/DTD/svg11.dtd">
<svg version="1.1" id="Layer_2" xmlns="http://www.w3.org/2000/svg" xmlns:xlink="http://www.w3.org/1999/xlink" x="0px" y="0px"
	 width="56.5px" height="56.5px" viewBox="0 0 56.5 56.5" enable-background="new 0 0 56.5 56.5" xml:space="preserve">
<path fill="#4D4D4F" stroke="#4D4D4F" stroke-width="0.25" stroke-linecap="round" stroke-linejoin="round" stroke-miterlimit="10" d="
	M31.07,30.59c-2.42-0.53-3.93-0.74-4.83-4.23c-0.44,0.16-0.92,0.28-1.41,0.3l0,0h-0.02h-0.02l0,0h-0.02h-0.02h-0.02l0,0h-0.02h-0.02
	h-0.02h-0.02l0,0H24.6h-0.05h-0.05h-0.02h-0.02l0,0l0,0h-0.05h-0.05l0,0h-0.02H24.3l0,0l0,0h-0.05h-0.02h-0.02l0,0h-0.02h-0.02
	h-0.05l-0.02-0.02c-0.65-0.05-1.29-0.25-1.87-0.55c-0.71,3.93-3.25,4.39-5.75,4.83c-2.22,0.42-4.36,0.78-4.22,5.06L11.53,36
	l0.72-0.02V36v5.57c5.85,0.07,12.15,0.08,17.94,0.06l0.04,1.46c-6.18,0.04-11.72-0.03-18.65-0.12l0,0c-0.02,0-0.02,0-0.05,0
	c-0.39,0-0.72-0.3-0.72-0.71V36l0,0c-0.16-5.47,2.56-5.96,5.4-6.49c2.12-0.37,4.29-0.76,4.69-4.37c-0.32-0.27-0.6-0.62-0.88-0.99
	c-1.11-1.5-1.78-3.54-1.78-5.77s0.32-4.26,1.25-5.75c0.97-1.59,2.56-2.55,5.06-2.55c2.47,0,4.06,0.97,5.03,2.55
	c0.92,1.49,1.25,3.52,1.25,5.75s-0.67,4.28-1.78,5.77c-0.44,0.6-0.95,1.13-1.52,1.52c0.65,2.97,2.84,3.45,4.92,3.91L31.07,30.59z
	 M28.38,13.36c-0.72-1.15-1.92-1.86-3.83-1.86c-1.92,0-3.12,0.71-3.83,1.86c-0.79,1.24-1.04,3.04-1.04,5.01
	c0,1.93,0.58,3.68,1.5,4.95c0.28,0.37,0.58,0.69,0.9,0.97l0,0l0,0l0.02,0.02l0,0l0.02,0.02l0,0h0.02v0.02h0.02l0,0l0.02,0.02
	l0.02,0.02l0,0h0.02v0.02h0.02l0.02,0.02l0,0l0.05,0.05l0,0c0.6,0.41,1.27,0.69,1.96,0.74l0,0h0.07l0,0h0.05l0,0h0.05h0.02l0,0h0.02
	h0.02h0.02l0,0h0.02h0.02l0,0l0,0h0.02h0.05l0,0c0.6-0.02,1.18-0.18,1.71-0.51c0,0,0.02,0,0.05-0.02c0.55-0.32,1.06-0.8,1.5-1.38
	c0.92-1.26,1.48-3.01,1.48-4.95C29.4,16.4,29.15,14.6,28.38,13.36L28.38,13.36z"/>
<g>
	<g>
		
			<path fill="#4D4D4F" stroke="#4D4D4F" stroke-width="0.5" stroke-linecap="round" stroke-linejoin="round" stroke-miterlimit="10" d="
			M32.61,22.06c-0.31,0-0.55-0.23-0.55-0.52v-5.75c0-3.89-3.36-7.05-7.5-7.05s-7.5,3.16-7.5,7.05v5.75c0,0.29-0.25,0.52-0.55,0.52
			c-0.31,0-0.56-0.23-0.56-0.52v-5.75c0-4.46,3.86-8.1,8.61-8.1s8.61,3.63,8.61,8.1v5.75C33.16,21.82,32.91,22.06,32.61,22.06
			L32.61,22.06z"/>
	</g>
	<g>
		<g>
			
				<path fill="#4D4D4F" stroke="#4D4D4F" stroke-width="0.5" stroke-linecap="round" stroke-linejoin="round" stroke-miterlimit="10" d="
				M32.79,22.06c-0.31,0-0.55-0.23-0.55-0.52c0-0.29,0.25-0.52,0.55-0.52c1.79,0,3.24-1.25,3.24-2.79c0-1.54-1.45-2.79-3.24-2.79
				c-0.31,0-0.55-0.23-0.55-0.52c0-0.29,0.25-0.52,0.55-0.52c2.4,0,4.35,1.72,4.35,3.83C37.14,20.34,35.19,22.06,32.79,22.06
				L32.79,22.06z"/>
		</g>
		<g>
			
				<path fill="#4D4D4F" stroke="#4D4D4F" stroke-width="0.5" stroke-linecap="round" stroke-linejoin="round" stroke-miterlimit="10" d="
				M16.32,22.06c-2.4,0-4.35-1.72-4.35-3.83c0-2.11,1.95-3.83,4.35-3.83c0.31,0,0.56,0.23,0.56,0.52c0,0.29-0.25,0.52-0.56,0.52
				c-1.79,0-3.24,1.25-3.24,2.79c0,1.53,1.45,2.79,3.24,2.79c0.31,0,0.56,0.23,0.56,0.52C16.88,21.82,16.63,22.06,16.32,22.06
				L16.32,22.06z"/>
		</g>
	</g>
	<g>
		
			<path fill="#4D4D4F" stroke="#4D4D4F" stroke-width="0.5" stroke-linecap="round" stroke-linejoin="round" stroke-miterlimit="10" d="
			M28.67,25.56c-0.29,0-0.53-0.21-0.55-0.48c-0.02-0.29,0.21-0.54,0.51-0.56c3.41-0.25,3.42-2.55,3.42-2.65
			c0-0.29,0.24-0.52,0.55-0.53c0,0,0.01,0,0.01,0c0.3,0,0.55,0.23,0.55,0.51c0,0.03,0,3.38-4.44,3.71
			C28.7,25.56,28.69,25.56,28.67,25.56L28.67,25.56z"/>
	</g>
	
		<path fill="#4D4D4F" stroke="#4D4D4F" stroke-width="0.5" stroke-linecap="round" stroke-linejoin="round" stroke-miterlimit="10" d="
		M27.34,24.34c0.36,0,0.66,0.28,0.66,0.62c0,0.34-0.3,0.62-0.66,0.62c-0.36,0-0.66-0.28-0.66-0.62
		C26.69,24.62,26.98,24.34,27.34,24.34 M27.34,23.29c-0.98,0-1.77,0.75-1.77,1.67s0.79,1.67,1.77,1.67c0.97,0,1.77-0.75,1.77-1.67
		S28.32,23.29,27.34,23.29L27.34,23.29z"/>
</g>
<rect x="14.85" y="35.49" fill="#4D4D4F" width="7.27" height="1.58"/>
<path fill="#4D4D4F" stroke="#4D4D4F" stroke-width="0.5" stroke-linecap="round" stroke-linejoin="round" stroke-miterlimit="10" d="
	M39.07,49.7h-2.62c-0.68,0-1.22-0.54-1.22-1.2v-1.66c0-0.17-0.17-0.39-0.33-0.45l-0.8-0.32c-0.25-0.12-0.47-0.04-0.59,0.07
	l-1.2,1.17c-0.46,0.45-1.27,0.45-1.73,0l-1.85-1.81c-0.23-0.22-0.36-0.53-0.36-0.85s0.13-0.62,0.36-0.85l1.2-1.17
	c0.12-0.12,0.17-0.39,0.09-0.54l-0.29-0.69l-0.04-0.1c-0.07-0.19-0.3-0.35-0.47-0.35h-1.7c-0.67,0-1.22-0.53-1.22-1.19v-2.56
	c0-0.66,0.55-1.2,1.22-1.2h1.7c0.17,0,0.4-0.16,0.46-0.32L30,34.93c0.09-0.19,0.05-0.46-0.08-0.58l-1.2-1.17
	c-0.23-0.22-0.36-0.52-0.36-0.84c0-0.32,0.13-0.62,0.36-0.85l1.85-1.81c0.46-0.45,1.27-0.45,1.73,0l1.2,1.17
	c0.12,0.11,0.41,0.16,0.56,0.09l0.8-0.32c0.2-0.07,0.37-0.29,0.37-0.46V28.5c0-0.66,0.55-1.2,1.22-1.2h2.62
	c0.67,0,1.22,0.54,1.22,1.2v1.66c0,0.17,0.16,0.39,0.33,0.45l0.8,0.32c0.24,0.12,0.47,0.04,0.59-0.07l1.2-1.17
	c0.46-0.45,1.27-0.45,1.73,0l1.85,1.81c0.23,0.22,0.36,0.52,0.36,0.85c0,0.32-0.13,0.62-0.36,0.85l-1.2,1.17
	c-0.12,0.12-0.17,0.39-0.09,0.54l0.33,0.78c0.07,0.2,0.29,0.35,0.47,0.35H48c0.67,0,1.22,0.54,1.22,1.2v2.56
	c0,0.66-0.55,1.19-1.22,1.19h-1.7c-0.18,0-0.4,0.16-0.46,0.32l-0.33,0.78c-0.09,0.18-0.05,0.46,0.07,0.58l1.2,1.17
	c0.23,0.22,0.36,0.52,0.36,0.84s-0.13,0.62-0.36,0.85l-1.85,1.81c-0.47,0.45-1.27,0.45-1.73,0l-1.2-1.17
	c-0.12-0.11-0.41-0.16-0.56-0.09l-0.8,0.32c-0.2,0.07-0.36,0.29-0.36,0.46v1.66C40.29,49.17,39.74,49.7,39.07,49.7L39.07,49.7z
	 M33.87,45.04c0.23,0,0.45,0.05,0.65,0.14l0.73,0.29c0.55,0.18,0.99,0.78,0.99,1.38v1.66c0,0.11,0.09,0.2,0.21,0.2h2.62
	c0.11,0,0.21-0.09,0.21-0.2v-1.66c0-0.6,0.44-1.2,1.02-1.39l0.73-0.3c0.44-0.22,1.28-0.12,1.7,0.29l1.2,1.17
	c0.1,0.1,0.19,0.1,0.29,0l1.85-1.81c0.05-0.05,0.06-0.11,0.06-0.14c0-0.03-0.01-0.09-0.06-0.14l-1.2-1.17
	c-0.44-0.42-0.56-1.15-0.28-1.69l0.3-0.72c0.18-0.54,0.79-0.97,1.41-0.97H48c0.11,0,0.2-0.09,0.2-0.2v-2.56c0-0.11-0.09-0.2-0.2-0.2
	h-1.7c-0.62,0-1.23-0.43-1.42-1l-0.3-0.71c-0.26-0.51-0.14-1.23,0.29-1.66l1.2-1.17c0.05-0.05,0.06-0.11,0.06-0.14
	s-0.01-0.09-0.06-0.14l-1.85-1.81c-0.1-0.1-0.19-0.1-0.29,0l-1.2,1.17c-0.42,0.41-1.2,0.54-1.73,0.28l-0.73-0.3
	c-0.55-0.18-0.99-0.78-0.99-1.38V28.5c0-0.11-0.09-0.2-0.21-0.2h-2.62c-0.11,0-0.21,0.09-0.21,0.2v1.66c0,0.6-0.44,1.2-1.03,1.39
	l-0.73,0.3c-0.44,0.22-1.29,0.12-1.7-0.29l-1.2-1.17c-0.1-0.1-0.19-0.1-0.29,0l-1.85,1.81c-0.05,0.05-0.06,0.11-0.06,0.14
	s0.01,0.09,0.06,0.14l1.2,1.17c0.44,0.43,0.56,1.15,0.28,1.69l-0.3,0.71c-0.18,0.54-0.8,0.97-1.41,0.97h-1.7
	c-0.11,0-0.2,0.09-0.2,0.2v2.56c0,0.11,0.09,0.2,0.2,0.2h1.7c0.62,0,1.23,0.43,1.42,1l0.3,0.72c0.26,0.51,0.14,1.23-0.3,1.66
	l-1.2,1.17c-0.05,0.05-0.06,0.11-0.06,0.14c0,0.03,0.01,0.09,0.06,0.14l1.86,1.81c0.1,0.1,0.19,0.1,0.29,0l1.2-1.17
	C33.05,45.19,33.46,45.04,33.87,45.04L33.87,45.04z M37.76,42.37c-2.18,0-3.96-1.74-3.96-3.87s1.78-3.87,3.96-3.87
	c2.19,0,3.96,1.74,3.96,3.87S39.94,42.37,37.76,42.37L37.76,42.37z M37.76,35.63c-1.62,0-2.94,1.29-2.94,2.88s1.32,2.88,2.94,2.88
	c1.63,0,2.94-1.29,2.94-2.88S39.38,35.63,37.76,35.63L37.76,35.63z"/>
</svg>
