<?xml version="1.0" encoding="utf-8"?>
<!-- Generator: Adobe Illustrator 15.0.0, SVG Export Plug-In . SVG Version: 6.00 Build 0)  -->
<!DOCTYPE svg PUBLIC "-//W3C//DTD SVG 1.1//EN" "http://www.w3.org/Graphics/SVG/1.1/DTD/svg11.dtd">
<svg version="1.1" id="Layer_3" xmlns="http://www.w3.org/2000/svg" xmlns:xlink="http://www.w3.org/1999/xlink" x="0px" y="0px"
	 width="56.5px" height="56.5px" viewBox="0 0 56.5 56.5" enable-background="new 0 0 56.5 56.5" xml:space="preserve">
<path fill="#4D4D4F" d="M18.26,35.86c1.01,0,1.94,0.41,2.62,1.09c0.66,0.65,1.09,1.58,1.09,2.61c0,1.01-0.44,1.94-1.09,2.62
	c-0.68,0.68-1.61,1.09-2.62,1.09c-1.04,0-1.97-0.41-2.65-1.09c-0.66-0.68-1.06-1.61-1.06-2.62c0-1.03,0.41-1.96,1.06-2.61
	C16.3,36.27,17.22,35.86,18.26,35.86L18.26,35.86z M10.97,38.62h1.34c0.22-1.28,0.82-2.43,1.69-3.3c1.09-1.09,2.6-1.74,4.26-1.74
	c1.64,0,3.14,0.65,4.23,1.74c0.87,0.87,1.5,2.02,1.69,3.3h12.84c0.22-1.28,0.82-2.43,1.69-3.3c1.09-1.09,2.59-1.74,4.23-1.74
	c1.67,0,3.17,0.65,4.26,1.74c0.87,0.87,1.48,2.02,1.69,3.3h0.88c-0.49-2.75-1.83-5.53-3.52-7.79c-1.97-2.64-4.32-4.58-6.34-4.9
	c-2.16-0.35-3.93-0.49-5.6-0.49c-1.69,0-3.25,0.11-4.92,0.27c-1.67,0.16-3.39,0.65-4.92,1.55c-1.31,0.79-2.49,1.88-3.39,3.35l0,0
	c-0.16,0.3-0.49,0.46-0.82,0.46c-4.48,0-6.83,0.46-8,1.72C11.24,33.9,11.02,35.78,10.97,38.62L10.97,38.62z M13.18,40.52h-3.17
	c-0.52,0-0.96-0.44-0.96-0.96c0-3.81,0.22-6.35,1.83-8.06c1.53-1.63,4.15-2.29,8.88-2.34c1.01-1.53,2.32-2.67,3.77-3.54
	c1.56-0.93,3.25-1.47,4.94-1.72c-0.11-0.06-0.22-0.14-0.3-0.22c-0.03-0.03-0.05-0.06-0.08-0.08l0,0c-0.3-0.3-0.49-0.68-0.49-1.15
	v-2.75c0-0.41,0.16-0.79,0.41-1.06c0.03-0.03,0.05-0.06,0.08-0.08l0.66,0.68l-0.66-0.68c0.27-0.3,0.68-0.46,1.12-0.46h1.8v-1.72
	c0-0.36,0.14-0.68,0.35-0.96c0.03-0.02,0.05-0.05,0.08-0.08l0,0l0,0l0,0c0.27-0.27,0.63-0.44,1.04-0.44h7.51
	c0.35,0,0.68,0.14,0.96,0.35c0.03,0.03,0.05,0.05,0.08,0.08l0,0l0,0l0,0c0.27,0.27,0.44,0.63,0.44,1.03v2.15
	c0,0.14-0.03,0.27-0.05,0.38c0.14,0.25,0.19,0.49,0.19,0.79v2.75c0,0.41-0.14,0.79-0.38,1.06c-0.03,0.03-0.05,0.06-0.08,0.08l0,0
	c-0.25,0.24-0.55,0.41-0.87,0.46c2.49,0.41,5.3,2.61,7.51,5.61c2.05,2.81,3.66,6.32,4.02,9.7c0.03,0.08,0.03,0.14,0.03,0.19
	c0,0.52-0.44,0.96-0.96,0.96h-2.84c-0.55,0-0.96-0.44-0.96-0.96c0-1.14-0.46-2.15-1.2-2.89c-0.74-0.76-1.78-1.2-2.92-1.2
	c-1.12,0-2.16,0.44-2.9,1.2c-0.74,0.74-1.2,1.74-1.2,2.89c0,0.52-0.41,0.96-0.96,0.96H23.32c-0.52,0-0.96-0.44-0.96-0.96
	c0-1.14-0.46-2.15-1.2-2.89c-0.74-0.76-1.77-1.2-2.89-1.2c-1.15,0-2.16,0.44-2.92,1.2c-0.74,0.74-1.2,1.74-1.2,2.89
	C14.14,40.09,13.73,40.52,13.18,40.52L13.18,40.52z M41.67,29.95c-0.44-0.43-0.9-0.76-1.39-1.01c-0.77-0.38-1.72-0.57-2.92-0.63
	c0,0.57,0,1.06,0,1.63H41.67z M41.1,27.23c1.28,0.63,2.27,1.58,3.28,3c0.06,0.08,0.11,0.16,0.16,0.25c0.16,0.49-0.08,1.03-0.57,1.22
	l-0.03-0.05l0,0l0.03,0.05c-0.14,0.05-0.27,0.08-0.41,0.11H43.5c-0.14,0.03-0.27,0.03-0.44,0.03h-6.64H36.4l0,0
	c-0.55,0-0.96-0.44-0.96-0.95l0,0c0.03-1.14,0.03-1.8,0-2.75v-0.68c0-0.03,0-0.08,0-0.11c0-0.52,0.41-0.95,0.93-0.95
	C38.37,26.38,39.84,26.63,41.1,27.23L41.1,27.23z M24.14,31.78c-0.41-0.11-0.96-0.52-1.09-0.9c-0.11-0.3-0.11-0.6,0-0.93l0,0
	c0.03-0.03,0.03-0.05,0.06-0.08c0.11-0.25,0.3-0.52,0.57-0.79l0,0c0.06-0.03,0.08-0.05,0.14-0.11c1.45-1.09,3-1.8,4.64-2.21
	c1.67-0.41,3.39-0.49,5.16-0.38l0,0c0.52,0.06,0.9,0.49,0.87,1.01c0.03,0.63,0,1.2,0,1.74c0,0.54-0.03,1.12,0,1.72l0,0
	c0.03,0.55-0.41,0.98-0.93,0.98h-0.03h-8.14C24.98,31.83,24.55,31.86,24.14,31.78L24.14,31.78z M28.92,28.62
	c-1.09,0.27-2.16,0.71-3.14,1.31h6.8c0-0.27,0-0.54,0-0.82c0.03-0.3,0.03-0.57,0.03-0.87C31.32,28.21,30.09,28.32,28.92,28.62
	L28.92,28.62z M29.52,22.19h10.22v-2.21h-7.24h-0.03h-2.95V22.19z M32.93,18.1h6.64v-1.28h-6.64V18.1z M40.01,16.39L40.01,16.39
	l0.35-0.36L40.01,16.39z M39.73,16.69l0.27-0.3l0,0l-0.3,0.3H39.73z M40.01,16.39L40.01,16.39L40.01,16.39L40.01,16.39L40.01,16.39z
	 M32.49,16.39L32.49,16.39l-0.35-0.36L32.49,16.39z M32.8,16.69l-0.3-0.3l0,0L32.8,16.69L32.8,16.69z M32.49,16.39L32.49,16.39
	L32.49,16.39L32.49,16.39L32.49,16.39z M42.96,35.86c1.04,0,1.97,0.41,2.65,1.09c0.66,0.65,1.07,1.58,1.07,2.61
	c0,1.01-0.41,1.94-1.07,2.62c-0.68,0.68-1.61,1.09-2.65,1.09c-1.01,0-1.94-0.41-2.62-1.09c-0.65-0.68-1.06-1.61-1.06-2.62
	c0-1.03,0.41-1.96,1.06-2.61C41.02,36.27,41.95,35.86,42.96,35.86L42.96,35.86z M44.24,38.29c-0.33-0.33-0.76-0.52-1.28-0.52
	c-0.49,0-0.93,0.19-1.26,0.52c-0.33,0.33-0.55,0.79-0.55,1.28c0,0.49,0.22,0.96,0.55,1.28c0.33,0.33,0.76,0.52,1.26,0.52
	c0.52,0,0.96-0.19,1.28-0.52c0.33-0.33,0.55-0.79,0.55-1.28C44.79,39.08,44.57,38.62,44.24,38.29L44.24,38.29z M19.52,38.29
	c-0.33-0.33-0.77-0.52-1.26-0.52c-0.52,0-0.96,0.19-1.28,0.52c-0.33,0.33-0.55,0.79-0.55,1.28c0,0.49,0.22,0.96,0.55,1.28
	c0.33,0.33,0.77,0.52,1.28,0.52c0.49,0,0.93-0.19,1.26-0.52c0.33-0.33,0.55-0.79,0.55-1.28C20.06,39.08,19.85,38.62,19.52,38.29
	L19.52,38.29z"/>
</svg>
