<?xml version="1.0" encoding="utf-8"?>
<!-- Generator: Adobe Illustrator 15.0.0, SVG Export Plug-In . SVG Version: 6.00 Build 0)  -->
<!DOCTYPE svg PUBLIC "-//W3C//DTD SVG 1.1//EN" "http://www.w3.org/Graphics/SVG/1.1/DTD/svg11.dtd">
<svg version="1.1" id="Layer_2" xmlns="http://www.w3.org/2000/svg" xmlns:xlink="http://www.w3.org/1999/xlink" x="0px" y="0px"
	 width="56.5px" height="56.5px" viewBox="0 0 56.5 56.5" enable-background="new 0 0 56.5 56.5" xml:space="preserve">
<g>
	<g>
		
			<path fill="#35434C" stroke="#4D4D4F" stroke-width="0.25" stroke-linecap="round" stroke-linejoin="round" stroke-miterlimit="10" d="
			M33.04,37.52 M42.06,19.94V3.45H16.93v14.53v4.78l-1.63,0.56l0-20.7c0-0.46,0.37-0.83,0.82-0.83h26.77c0.45,0,0.82,0.37,0.82,0.83
			v17.66L42.06,19.94z"/>
	</g>
	<g>
		
			<path fill="#35434C" stroke="#5D534D" stroke-width="0.25" stroke-linecap="round" stroke-linejoin="round" stroke-miterlimit="10" d="
			M31.27,9.75h-9.63c-0.45,0-0.82-0.37-0.82-0.83s0.37-0.83,0.82-0.83h9.63c0.45,0,0.82,0.37,0.82,0.83S31.72,9.75,31.27,9.75
			L31.27,9.75z"/>
	</g>
	<g>
		
			<path fill="#35434C" stroke="#5D534D" stroke-width="0.25" stroke-linecap="round" stroke-linejoin="round" stroke-miterlimit="10" d="
			M37.62,13.41H21.64c-0.45,0-0.82-0.37-0.82-0.83c0-0.46,0.37-0.83,0.82-0.83h15.98c0.45,0,0.82,0.37,0.82,0.83
			C38.44,13.04,38.08,13.41,37.62,13.41L37.62,13.41z"/>
	</g>
	<g>
		
			<path fill="#35434C" stroke="#5D534D" stroke-width="0.25" stroke-linecap="round" stroke-linejoin="round" stroke-miterlimit="10" d="
			M37.62,17.07H21.64c-0.45,0-0.82-0.37-0.82-0.83s0.37-0.83,0.82-0.83h15.98c0.45,0,0.82,0.37,0.82,0.83S38.08,17.07,37.62,17.07
			L37.62,17.07z"/>
	</g>
	<g>
		
			<path fill="#35434C" stroke="#5D534D" stroke-width="0.25" stroke-linecap="round" stroke-linejoin="round" stroke-miterlimit="10" d="
			M28.33,20.74h-6.69c-0.45,0-0.82-0.37-0.82-0.83c0-0.46,0.37-0.83,0.82-0.83h6.69c0.45,0,0.82,0.37,0.82,0.83
			C29.15,20.37,28.79,20.74,28.33,20.74L28.33,20.74z"/>
	</g>
	<path fill="#4D4D4F" d="M39.83,47.32c0,0.1-0.04,0.21-0.04,0.31v5.85c0,0.59-0.52,1.1-1.2,1.1c0,0-0.04,0-0.07-0.03
		c-8.79,0.1-14.32,0.1-23.11,0c-0.82,0.03-1.16-0.41-1.16-1.07v-0.03V47.6v-0.07v-0.21c-1.57,0-4.7,0-6.24-0.04
		c-1.91,0-3.74-0.03-5.46-0.07H2.51c-0.64,0-1.16-0.48-1.16-1.07l0,0v-5.03c0-0.04,0-0.07,0-0.1c0-1.83,0.45-3.17,1.42-4.1
		c1.01-0.96,2.47-1.44,4.56-1.55c1.78-0.09,1.27-1.1,1.42-1.89c-0.19-0.17-0.34-0.34-0.49-0.52c-1.01-1.31-1.65-3.03-1.65-4.96
		c0-1.86,0.3-3.55,1.16-4.86c0.94-1.41,2.47-2.31,4.86-2.31c2.39,0,3.89,0.9,4.86,2.31c0.86,1.31,1.16,3,1.16,4.86
		c0,1.93-0.64,3.65-1.65,4.96c-0.41,0.52-1.17,1.04-1.7,1.42c0.15,0.58,0.48,1.11,0.71,1.53c0.46,0.81,2.26,0.71,3.29,0.78
		c3.54,0.26,3.12,3.56,3.12,3.56s1-0.06,1.26-1.59c0.2-1.16-0.37-1.62-0.82-2.25c-0.4-0.56-0.82-1.27-0.99-1.84
		c-0.33-1.16-0.77-2.63-0.77-3.84c0-2.17,0.21-4.02,1.21-5.5c1.09-1.62,2.51-2.55,5.24-2.55c2.69,0,4.09,1.01,5.17,2.63
		c0.97,1.48,1.27,3.45,1.27,5.61c0,1.62-0.2,3.1-0.87,4.37c-0.35,0.68-1.04,1.48-1.52,2.2c-0.29,0.44-0.48,0.47-0.43,1.27
		c0.11,1.5,1.6,1.33,1.6,1.33s0.17-1.45,0.29-1.94c0.4-1.68,1.72-2.23,4.09-2.62c1.05-0.17,1.6-0.74,1.97-1.15
		c0.34-0.38,0.52-0.86,0.63-1.45c-0.52-0.38-0.97-0.79-1.38-1.31c-1.05-1.31-1.64-3.03-1.64-4.96c0-1.86,0.3-3.55,1.16-4.86
		c0.94-1.41,2.47-2.31,4.86-2.31c2.36,0,3.89,0.9,4.83,2.31c0.9,1.31,1.2,3,1.2,4.86c0,1.93-0.64,3.65-1.65,4.96
		c-0.19,0.17-0.33,0.34-0.49,0.52c0.15,0.79,0.37,1.48,0.79,2c0.41,0.58,1.08,1,2.06,1.2c2.1,0.14,3.55,0.59,4.57,1.55
		c1.01,0.93,1.42,2.27,1.42,4.1c0,0.03,0,0.07,0,0.1v5.03l0,0c0,0.59-0.52,1.07-1.16,1.07l0,0c-5.42,0.07-9.43,0.14-11.04,0.14
		C42.15,47.36,40.99,47.32,39.83,47.32L39.83,47.32z M43.31,45.15c3.37-0.03,6.73-0.03,9.84-0.1v-3.93c0-0.04,0-0.07,0-0.1
		c0-1.24-0.22-2.1-0.78-2.58c-0.64-0.59-3.22-0.9-3.29-0.9c-1.68-0.34-2.81-1.1-3.55-2.13c-0.45-0.55-0.75-1.17-0.94-1.86
		c-0.56,0.21-1.2,0.31-1.8,0.31c-0.26,0-0.52,0-0.75-0.04c-0.22,0.72-0.52,1.38-1.01,1.93c-0.75,0.86-1.68,1.46-3.28,1.8
		c-0.9,0.17-1.73,0.01-2.47,1.11c-0.4,0.59-0.41,2.41-0.36,2.45c0.36,0.26,0.85,0.38,1.07,0.43c2.17,0.51,3.06,0.64,3.7,3.57
		L43.31,45.15z M8.04,45.12c1.57,0,4.78,0.03,6.39,0.03c0.79-3.27,2.45-3.52,4.92-3.97c0.5-0.08,0.92-0.29,0.92-0.29
		s0.2-1.62-0.74-2.08c-0.58-0.29-2.36-0.2-3.14-0.32c-1.35-0.2-1.75-0.66-2.37-1.62c-0.49-0.75-0.43-1.02-0.61-1.74
		c-0.26,0.03-0.49,0.03-0.75,0.03c-0.64,0-1.24-0.1-1.8-0.31c-0.23,0.69-0.07,2.05-3.6,2.74c-0.04,0.01-1.22,0.11-1.3,0.11
		l1.11-0.11c-1.53,0.1-2.01,0.29-2.57,0.84c-0.52,0.52-0.75,1.34-0.75,2.58c0,0.03,0,0.07,0,0.1v3.93
		C5.13,45.09,6.59,45.09,8.04,45.12L8.04,45.12z M20.53,43.23c-1.68,0.28-3.37,0.55-3.78,2.48c-0.15,0.55-0.15,1.2-0.15,1.76
		c0,0.03,0,0.1,0,0.14v4.79c8.04,0.1,12.75,0.1,20.83,0V47.6c0-0.03,0-0.07,0-0.1l0,0c0-0.24,0.04-0.48,0.04-0.65
		c0-0.17,0-0.34-0.04-0.55c-0.15-2.24-1.83-2.58-3.74-3c-1.36-0.28-3.12-0.96-4.1-2.32c-0.48-0.66-1.13-2.65,0.3-4.68
		c2.11-2.99,1.94-4.31,1.94-5.58c0-1.79-0.43-3.14-1.14-4.24c-0.67-0.96-1.5-1.56-3.26-1.51c-1.2,0.03-2.45,0.46-3.08,1.43
		c-0.75,1.1-0.83,2.68-0.83,4.48c0,0.93-0.05,1.99,0.4,2.92c0.45,1.03,1.14,2.03,1.57,2.6c0.54,0.72,0.66,1.42,0.46,2.37
		C25.32,41.74,22.74,42.85,20.53,43.23z M12.64,23.05c-1.42,0-2.32,0.48-2.84,1.24c-0.6,0.9-0.82,2.24-0.82,3.72
		c0,1.45,0.49,2.72,1.2,3.65C10.84,32.48,11.7,33,12.64,33c0.93,0,1.79-0.52,2.47-1.34c0.71-0.93,1.16-2.2,1.16-3.65
		c0-1.48-0.19-2.82-0.79-3.72C14.96,23.53,14.06,23.05,12.64,23.05L12.64,23.05z M45.59,22.98c-0.49-0.76-1.39-1.24-2.81-1.24
		c-1.46,0-2.32,0.48-2.84,1.24c-0.6,0.9-0.82,2.24-0.82,3.72c0,1.45,0.45,2.72,1.2,3.65c0.64,0.83,1.53,1.34,2.47,1.34
		s1.8-0.52,2.43-1.34c0.75-0.93,1.2-2.2,1.2-3.65C46.41,25.22,46.18,23.88,45.59,22.98L45.59,22.98z"/>
</g>
</svg>
