<?xml version="1.0" encoding="utf-8"?>
<!-- Generator: Adobe Illustrator 15.0.0, SVG Export Plug-In . SVG Version: 6.00 Build 0)  -->
<!DOCTYPE svg PUBLIC "-//W3C//DTD SVG 1.1//EN" "http://www.w3.org/Graphics/SVG/1.1/DTD/svg11.dtd">
<svg version="1.1" id="Layer_3" xmlns="http://www.w3.org/2000/svg" xmlns:xlink="http://www.w3.org/1999/xlink" x="0px" y="0px"
	 width="56.5px" height="56.5px" viewBox="0 0 56.5 56.5" enable-background="new 0 0 56.5 56.5" xml:space="preserve">
<path fill="#4D4D4F" d="M35.71,14.71l-7.64-5.23c-0.25-0.18-0.6-0.19-0.87-0.01l-7.65,5.24l-7.6,5.2c-0.23,0.13-0.38,0.37-0.38,0.64
	c0,0.41,0.34,0.74,0.75,0.74h2.1v18.62c0,0.41,0.34,0.74,0.75,0.74h6.34l0.3,4.94l20.35,0.4c0.42,0,0.3-5.71,0.3-6.11l-1.34-2.99
	V21.29h1.8v0c0.24,0,0.47-0.11,0.62-0.31c0.24-0.33,0.15-0.79-0.19-1.02L35.71,14.71z M21.99,39.17h-1.82V32.1
	c0-0.11,0.05-0.21,0.12-0.29c0.08-0.07,0.18-0.12,0.3-0.12h4.71c0.11,0,0.22,0.05,0.3,0.12c0.07,0.08,0.12,0.18,0.12,0.29v3.87
	l-2.95,0.91L21.99,39.17z M21.9,45.76l0.26-6.59l0.95-1.86l4.11-1.85V32.1c0-0.52-0.22-0.99-0.57-1.33
	c-0.35-0.34-0.83-0.55-1.36-0.55h-4.71c-0.53,0-1.01,0.22-1.36,0.55c-0.35,0.34-0.56,0.81-0.56,1.33v7.08h-2.74V20.55
	c0-0.41-0.34-0.74-0.75-0.74H14.7l5.7-3.91l7.22-4.95l7.22,4.95l5.7,3.91h-0.17c-0.42,0-0.75,0.33-0.75,0.74v15.93l2.54,1.94v7.52
	L21.9,45.76z"/>
<path fill="#4D4D4F" stroke="#4D4D4F" stroke-width="0.25" stroke-linecap="round" stroke-linejoin="round" stroke-miterlimit="10" d="
	M41.49,45.24v-4.35c0-0.02,0-0.04,0-0.05c0.25-3.11-1.44-3.49-3.24-3.88c-1.91-0.41-3.93-0.86-4.64-3.59
	c-0.35,0.13-0.73,0.22-1.11,0.23l0,0h-0.02h-0.02l0,0h-0.02h-0.02h-0.02l0,0h-0.02h-0.02h-0.02h-0.02l0,0h-0.02h-0.04h-0.04h-0.02
	h-0.02l0,0l0,0h-0.04h-0.04l0,0h-0.02h-0.04l0,0l0,0h-0.04h-0.02h-0.02l0,0h-0.02h-0.02h-0.04l-0.02-0.02
	c-0.51-0.04-1.02-0.2-1.48-0.43c-0.56,3.07-2.57,3.43-4.54,3.77c-1.75,0.32-3.44,0.61-3.33,3.95l-0.56,0.02l0.56-0.02v0.02v4.35
	C28.93,45.31,35.14,45.31,41.49,45.24L41.49,45.24z M22.04,46.34c-0.02,0-0.02,0-0.04,0c-0.31,0-0.56-0.23-0.56-0.56v-4.89l0,0
	c-0.13-4.28,2.02-4.65,4.26-5.07c1.68-0.29,3.39-0.59,3.7-3.41c-0.25-0.22-0.47-0.49-0.69-0.77c-0.87-1.17-1.4-2.77-1.4-4.51
	s0.26-3.32,0.98-4.49c0.76-1.24,2.02-2,3.99-2c1.95,0,3.21,0.75,3.97,2c0.73,1.17,0.98,2.75,0.98,4.49s-0.53,3.34-1.4,4.51
	c-0.35,0.47-0.75,0.88-1.2,1.19c0.51,2.32,2.24,2.7,3.88,3.05c2.28,0.5,4.43,0.99,4.12,5.03v4.87l0,0c0,0.31-0.25,0.56-0.56,0.56
	v-0.56v0.56C34.76,46.43,29.4,46.43,22.04,46.34L22.04,46.34z M35.3,23.21c-0.56-0.9-1.51-1.46-3.02-1.46
	c-1.51,0-2.46,0.56-3.02,1.46c-0.62,0.97-0.82,2.37-0.82,3.92c0,1.51,0.46,2.88,1.18,3.86c0.22,0.29,0.46,0.54,0.71,0.76l0,0l0,0
	l0.02,0.02l0,0l0.02,0.02l0,0h0.02v0.02h0.02l0,0l0.02,0.02l0.02,0.02l0,0h0.02v0.02h0.02l0.02,0.02l0,0l0.04,0.04l0,0
	c0.47,0.32,1,0.54,1.55,0.58l0,0h0.06l0,0h0.04l0,0h0.04h0.02l0,0h0.02h0.02h0.02l0,0h0.02h0.02l0,0l0,0h0.02h0.04l0,0
	c0.47-0.02,0.93-0.14,1.35-0.4c0,0,0.02,0,0.04-0.02c0.44-0.25,0.84-0.63,1.18-1.08c0.73-0.99,1.17-2.35,1.17-3.86
	C36.1,25.58,35.9,24.18,35.3,23.21L35.3,23.21z"/>
<rect x="33.76" y="41.01" fill="#4D4D4F" width="5.9" height="1.17"/>
</svg>
